<svg version="1" xmlns="http://www.w3.org/2000/svg" width="682.667" height="682.667" viewBox="0 0 512.000000 512.000000"><path d="M239.5 63.1C164 69.3 97.2 121.5 72.9 193.2l-3.3 9.8H46.3c-12.8 0-23.3.2-23.3.5s4.7 11.9 10.5 25.8S44 255.2 44 256c0 .8-4.7 12.8-10.5 26.7-5.8 13.9-10.5 25.5-10.5 25.8 0 .3 10.5.5 23.3.5h23.3l3.3 9.7c16.3 48.2 52.3 88.8 98.6 111.4 53.3 25.9 115.7 25.9 168.9 0 46.5-22.6 82.4-63.2 98.7-111.4l3.3-9.7h23.3c12.8 0 23.3-.2 23.3-.5s-4.7-11.9-10.5-25.8S468 256.8 468 256c0-.8 4.7-12.8 10.5-26.7 5.8-13.9 10.5-25.5 10.5-25.8 0-.3-10.5-.5-23.3-.5h-23.3l-3.3-9.8C420 136.7 373.4 90.7 316.4 72.1c-14.8-4.9-29.2-7.7-45.9-9.1-14.1-1.1-16.4-1.1-31 .1zm49.9 24.8c20.4 4.2 44.2 14 60.6 24.9 29.1 19.4 52.7 48.4 65.4 80.4 2.9 7.5 3.2 9.8 1.2 9.8-.7 0-2.3-2.7-3.6-6.3-1.2-3.4-4-9.7-6.2-14-3.8-7.6-4-7.8-6.1-6.5-11.5 7.3-47 26.9-48.4 26.6-.9-.2 8.7-6.3 22.5-14.2 13.3-7.6 24.8-14.4 25.7-15 1.2-.9.5-2.5-4.9-10.6-29.2-43.5-75.1-70.2-128.3-74.6l-8.3-.7-.2 57.2c-.2 37.2-.6 57.1-1.3 57.1-.7 0-1.1-19.8-1.3-57l-.2-57h-4c-14.5 0-41.1 5.3-55.6 11-12.1 4.8-27.9 13.3-38.4 20.8-16 11.3-35.6 32.4-44.9 48.3l-2.2 3.7 24.4 14c13.4 7.8 25.1 14.4 26 14.8 2.4.9 2.1 2.7-.2 2.1-1.1-.2-13-6.9-26.6-14.7-13.5-7.8-24.8-14.1-24.9-13.9-1.2 1.3-8.7 17.4-10.6 22.6-1.4 3.9-2.8 6.3-3.8 6.3-2 0-1.1-4.1 3.4-14.5 13.6-31.6 38.6-60.6 67.9-78.5 16.9-10.4 40.2-19.3 58.5-22.4 5.2-.9 10.6-1.8 12-2 1.4-.3 11.5-.3 22.5-.1 15.2.3 22.4.8 29.9 2.4zm-2.8 22.6c.9 1.4 1.7 3.5 1.8 4.8l.1 2.3 3.5-2.4c2.8-1.9 4.4-2.3 8.3-1.9 2.6.2 5.1.7 5.5 1.1 1.1 1.2-5.6 6.6-8.9 7.3-2 .4-2.8 1-2.5 2 .3.7-.1 1.6-.9 1.9-.7.3-1.1 1.2-.8 2 .3.8.2 2.5-.1 3.9-.6 2.2-.9 2.3-2.5 1.3-2.3-1.4-4.1-5-4.1-8 0-2.1 0-2.1-2.5.2-2.7 2.5-10.9 3.8-13.5 2.1-1.3-.9-1-1.5 1.6-4.2 2.3-2.3 4.3-3.3 7.7-3.6 4.1-.5 4.5-.8 3.7-2.4-.6-1-1-3.4-1-5.3 0-4.3 2.1-4.8 4.6-1.1zm-69.7 10c-2.5 3.7-3.9 4.4-3.9 2.1 0-1.5 5-6.9 5.8-6.1.3.2-.6 2-1.9 4zm4.6 3.5c-.3.5-1.6 1-2.8 1.1-1.6 0-1 .6 2.1 1.9 2.7 1.2 5.3 1.7 7.2 1.3 1.8-.3 3.6 0 4.5.7 1.7 1.4 2 5.6.4 6.5-1.9 1.3-5.9-.5-7.3-3.3-.9-1.8-2.8-3.2-5-3.9-4.6-1.4-4.6-.2-.1 3.3 3.7 2.8 4.6 6.1 1.9 7.1-2.8 1-4.9-1.1-4.9-5-.1-3.8-2.8-7.7-5.4-7.7-.9 0-2.3-.5-3.1-1.1-1.1-.7-.5-.8 2.1-.3 2.2.3 3.9.2 4.3-.5.4-.6 2.1-1.1 3.7-1.1 1.8 0 2.8.4 2.4 1zm-46.7 11.5c4.9 2.1 8.1 5.2 10.3 10 9.2 20-16.1 37.6-31.7 22-4.1-4.2-6.7-10.9-5.9-15.3.2-.9.6-2.9 1-4.4.3-1.5 2-4.4 3.8-6.4 5.9-6.8 14.7-9.1 22.5-5.9zm154 14.1c13.5 5.6 16.9 21.7 6.8 31.9-15.3 15.3-40.4-1.4-32.1-21.3 4.2-10 15.5-14.8 25.3-10.6zm43.8 1.3c3.2 1.9 6.4 7.4 6.4 10.8 0 1.1-.9 2.8-2 3.8-1.9 1.7-2.2 1.8-5.5.2-4-1.9-3.9-2-2.5 6.6 1.2 7.8.7 8.9-4.4 8.5l-4.1-.3v-8.3c0-4.5-.2-8.2-.5-8.2s-1.4.7-2.4 1.5c-2.4 1.8-5.8 1.9-7.4.3-3-3 .7-12.5 5.9-15.1 4.6-2.3 12.6-2.2 16.5.2zm-88.4.8c2.2 2 2.4 6.6.3 8.3-2.2 1.8-6.6 1.5-8.2-.6-1.9-2.5-1.6-5.1.7-7.4 2.4-2.4 4.7-2.5 7.2-.3zm-49.7 7.7c14.3 8.4 16.7 28.1 4.8 40-3.4 3.3-4.1 3.6-9.6 3.6-5.2 0-5.8-.2-5.3-1.7.4-.9.9-3.6 1.3-5.8l.5-4.2 4.9 2.6c3.8 2.1 5.1 2.3 6 1.4 1-1 .6-2.2-1.9-5.8l-3.1-4.5 4.4-1.1c8.1-2 7.8-5.5-.5-6.6-2.2-.3-4-.7-4-1 0-.2.9-2.1 2-4.3 3.8-7.5 2-9-4.8-4l-4.1 3-1.2-4.3c-2.2-8.2-5.2-8.2-6.5-.1-.3 2.4-.9 4.4-1.3 4.4-.3 0-1.9-.9-3.6-2-3.2-2.1-6-2.6-6.9-1.1-.3.4.8 2.8 2.3 5.3l2.9 4.5-4.2 1.3c-8.3 2.4-8.1 5.5.5 6.6l4.9.7-2 2.6c-2.3 3.3-3.5 7.7-2.2 8.5.5.3 3-.8 5.5-2.4l4.6-2.9 1.1 4c.6 2.2 1.4 4.7 1.7 5.5.4 1.1-.8 1.4-6.4 1.4-6.7 0-7-.1-10.5-3.8-7.2-7.5-9.4-16.7-6.3-26.1 2-6.3 8.7-13.3 14.7-15.5 6.5-2.4 16.5-1.6 22.3 1.8zm-11.5 11l1.1 3.5 3.6-2.2 3.6-2.1-.5 2.5c-.3 1.3-.9 3.2-1.3 4.1-.5 1.3 0 1.9 2.4 2.5 4.6 1.2 4.1 3.1-1.1 4.7-1.7.5-1.7.7 0 3.5 2.1 3.8.9 5-2.9 2.9-2.9-1.7-2.9-1.7-3.5 1-1.1 5.3-1.3 5.5-2.9 4.2-.8-.7-1.5-2.1-1.5-3.1 0-2.5-1.4-3.1-3.6-1.4-2.8 2.1-4.8 1.9-4-.5.3-1.1.9-2.9 1.2-4 .5-1.5.2-2-1.4-2-2.6 0-5.2-1-5.2-2 0-.5 1.6-1.4 3.6-2 3.4-1.2 3.5-1.3 2-3.6-.9-1.3-1.6-2.8-1.6-3.4 0-1.3 3.3-1.3 4.7.1 1.6 1.6 3.3.2 3.3-2.5 0-4.7 2.4-4.8 4-.2zm65.7 17.1l3.5 3.5 2.5-2c3.7-2.9 8-2.6 11.2.9 3.3 3.5 5.8 10.8 4.2 12.4-.6.6-1.2.8-1.2.4-.1-.4-.2-1-.3-1.5-.1-.4-.6-2.1-1-3.9-.9-3.9-4.9-8.3-7.5-8.3-1.1 0-3.6 1.4-5.5 3l-3.4 3-2.1-3.5c-2.6-4.5-6.3-6.3-9.4-4.6-5.2 2.8-8.6 11.8-5.5 14.9.9.9.8 1.2-.5 1.2-1 0-2.2-1.2-2.8-2.6-1.3-3.6.4-8.5 4.6-12.9 4.4-4.8 8.4-4.8 13.2 0zM125 202.1c0 .5-.9.9-2 .9-1.9 0-2.7-2-1.3-3.3.7-.8 3.3 1.1 3.3 2.4zm269.4-.1c.7.7-2.6 1-8.9 1-9.3 0-11.8-1.1-5.5-2.3 3.5-.7 13.3.2 14.4 1.3zm82 20.7c-3.6 8.7-8.2 19.7-10.1 24.5l-3.6 8.8 3.6 8.7c1.9 4.9 6.5 15.9 10.1 24.5l6.5 15.8H29.1l6.5-15.8c3.6-8.6 8.2-19.6 10.1-24.5l3.6-8.7-3.6-8.8c-1.9-4.8-6.5-15.8-10.1-24.5L29.1 207h453.8l-6.5 15.7zM99 315.2c1.2 3.5 4.4 10.7 7.1 16l4.9 9.7 25.2-14.5c13.9-8 26.3-15.2 27.5-16 1.2-.8 3-1.4 4-1.4 1.6.1 1.6.2-.2 1.6-1.1.8-13.8 8.3-28.2 16.6-14.5 8.4-26.3 15.7-26.3 16.2.1 2.8 14.6 21.2 24.5 31.1 21.8 21.8 47.7 36.6 77 44 12.2 3.1 28.6 5.5 37.5 5.5h4l.2-57c.2-37.2.6-57 1.3-57 .7 0 1.1 19.9 1.3 57.1l.2 57.2 8.3-.7c52-4.3 97.8-30.4 126.6-72 2.8-4.1 5.3-8.1 5.6-8.9.4-1-6.6-5.5-25.2-16.2-14.2-8.1-26.5-15.4-27.3-16.1-4.4-4.1 3.9 0 27.6 13.6 14.4 8.2 26.4 15 26.7 15 1 0 9.1-16.5 11.7-23.8 2.1-5.7 5-8.4 5-4.6 0 5.1-10.6 26.7-19.9 40.5-13.2 19.6-28.9 35.3-48.1 48.1-16.9 11.2-41.8 21.2-63.5 25.5-12.8 2.5-48.2 2.5-61 0-20.2-4-42.6-12.6-59-22.7-29.3-18-54.3-46.8-67.9-78.5-4.5-10.4-5.4-14.5-3.4-14.5 1 0 2.4 2.4 3.8 6.2zm104-4.7c0 2.1 2.7 1.9 3.9-.3 1-1.6 1.2-1.5 3.1.8l2 2.5 1.9-2.3c1.5-1.7 3-2.2 7-2.2 5.7 0 6.2.7 2.8 3.8-7.1 6.7-19.3 6.7-26.4 0-3.2-3-2.9-3.8 1.7-3.8 2.9 0 4 .4 4 1.5zm114.9 2.1c8.1 4.1 14.1 13.7 14.1 22.7 0 4.7-3 12.4-6.5 16.4-9.8 11.5-27.3 11.7-37.8.4-8.9-9.5-9.2-23.8-.5-33.5 5.3-6.1 10.8-8.6 18.9-8.6 5 0 7.7.6 11.8 2.6zm81.6 1.9c1.4 1.3 2.5 2.8 2.5 3.3 0 1.9-4.2 6.2-6 6.2-1.8 0-6-4.3-6-6.2 0-1.3 4.7-5.8 6-5.8.6 0 2.2 1.1 3.5 2.5zm-159.2 13.6c2.2 3 1.3 6-2.4 8-1.7.9-2.7.7-4.8-.8-3.4-2.6-3.8-5.6-1.1-8.3 2.7-2.7 5.7-2.3 8.3 1.1zm-64.6-.2c6.6 3 8 7.8 4.2 14l-2 3.4 3 2.9c1.7 1.7 3.1 3.9 3.1 5 0 5.6-7.7 12.8-13.6 12.8-2.4 0-3.9-.8-5.8-3.1-1.4-1.7-2.6-3.7-2.6-4.6 0-1.1-.6-1.4-2.2-.9-6.2 1.8-7.4 1.7-10-.3-3.6-2.8-5.7-11.6-3.9-16 1.6-3.6 5.9-5.6 10.6-4.7 3.4.7 3.5.6 3.5-2.4 0-4.2 3.9-8 8.2-8 1.8 0 5.2.9 7.5 1.9zm183.3 4.9c1.6 1.3 2.4 3.2 2.8 7 .4 5 .6 5.2 3.5 5.2 6.4 0 9.6 6.9 6.6 14.7-2.7 7.2-8.2 9.1-14.5 5.2-1.9-1.1-3.4-1.6-3.4-1.1 0 2-5 6.2-7.5 6.2-5.9 0-13.5-7.3-13.5-12.9 0-2.6 4.5-8.1 6.6-8.1 2.2 0 2.4-1.6.7-5-2.3-4.7-.9-8 4.7-10.8 5.4-2.7 11-2.8 14-.4zm-127.4 12.7c4.5 1.8 10.2 7.2 12.5 11.8 8.6 16.8-3.6 36.7-22.5 36.7-13.5 0-24-9.3-25.3-22.4-2-19.3 17.4-33.6 35.3-26.1zm57.1 30.2c.3 2.4-.1 5.3-1 7.6-1.5 3.6-1.5 3.7.4 3.7 1.2 0 1.7.4 1.3 1.1-.3.6 1 2.4 3 4.1 2 1.6 3.4 3.4 3.1 3.9-1 1.5-8.9 1-11.3-.7-2.2-1.5-2.2-1.5-2.2 3.1 0 5-1.6 8.9-4.9 11.9-2.7 2.5-4.1 1.3-4.8-4.2-.4-3.2 0-5.1 2-8.6 2.4-4.4 2.5-4.6.6-4.6s-7.9-2.6-7.9-3.4c0-.3-.3-1.1-.6-2-.5-1.3.2-1.6 4.4-1.6 2.8 0 5.4.4 5.7 1 1.1 1.8 2.6 1 2.5-1.3-.5-5.7.2-7.9 3.7-11.7 4.1-4.6 5.2-4.3 6 1.7zm35.7 5.9c3.3 3.3.9 9.4-3.6 9.4-2.8 0-5.8-2.8-5.8-5.3 0-4.8 6.1-7.4 9.4-4.1z"/><path d="M168 138.5c0 .9.5 1.5 1.1 1.3.6-.2 1.1-.8 1.1-1.3s-.5-1.1-1.1-1.3c-.6-.2-1.1.4-1.1 1.3zM160.2 139.1c.2.6.8 1 1.3 1s1.1-.4 1.3-1c.2-.6-.4-1.1-1.3-1.1s-1.5.5-1.3 1.1zM164.2 142.7c.2 1 1 1.8 1.8 1.8 2.2 0 1.8-2.9-.3-3.3-1.4-.3-1.8.1-1.5 1.5zM170.6 142.6c-.4 1-.2 2.2.3 2.7 1.5 1.5 4.6.3 4.6-1.8 0-2.6-4-3.3-4.9-.9zM157.4 143.1c-1 1.7 1.3 3.6 2.7 2.2 1.2-1.2.4-3.3-1.1-3.3-.5 0-1.2.5-1.6 1.1zM177.7 146.6c-.9 1 .2 2.4 1.9 2.4.8 0 1.4-.7 1.4-1.5 0-1.5-2.1-2.1-3.3-.9zM162.3 147.7c-1.9.7-1.6 4 .4 4.7 2.1.8 3.6-.6 3.1-3-.3-1.9-1.6-2.5-3.5-1.7zM153.4 149.1c-.8 1.4 1.1 3.3 2.5 2.5.6-.4 1.1-1.4 1.1-2.2 0-1.6-2.6-1.9-3.6-.3zM168 150.5c0 .9.5 1.5 1.1 1.3.6-.2 1.1-.8 1.1-1.3s-.5-1.1-1.1-1.3c-.6-.2-1.1.4-1.1 1.3zM173 152.6c-1.1 1.2-1 1.8.3 3.2 1.6 1.5 1.8 1.5 3.4 0 1.3-1.4 1.4-2 .3-3.2-.7-.9-1.6-1.6-2-1.6-.4 0-1.3.7-2 1.6zM152.6 154.7c-1.1 1.1-.6 2.3.9 2.3.8 0 1.5-.4 1.5-.9 0-1.3-1.6-2.2-2.4-1.4zM159.3 154.7c-1.8.6-1.6 3.3.1 3.3 1.9 0 3.1-1.9 2-3-.5-.4-1.5-.5-2.1-.3zM166.7 154.7c-.4.3-.7 1.2-.7 2 0 1.5 2.6 1.8 3.4.4.7-1.1-1.8-3.3-2.7-2.4zM178.2 159.2c.6 1.8 2.8 2.1 2.8.4 0-.9-.7-1.6-1.6-1.6-.9 0-1.4.5-1.2 1.2zM172.6 159.7c-1.2 1.2-.6 3.3.9 3.3.8 0 1.5-.6 1.5-1.4 0-1.7-1.4-2.8-2.4-1.9zM164.3 160.7c-1.8.7-1.6 2.8.3 4.3 1.2 1.1 1.8 1 3.1-.3s1.4-1.9.3-3.1c-1.3-1.7-1.7-1.8-3.7-.9zM156.4 162.1c-1 1.7 1.3 3.6 2.7 2.2 1.2-1.2.4-3.3-1.1-3.3-.5 0-1.2.5-1.6 1.1zM169 168c0 .5.7 1 1.5 1s1.5-.5 1.5-1c0-.6-.7-1-1.5-1s-1.5.4-1.5 1zM319.4 154.1c-1 1.7 1.3 3.6 2.7 2.2 1.2-1.2.4-3.3-1.1-3.3-.5 0-1.2.5-1.6 1.1zM313.6 154.8c-.3.6-.1 1.4.5 1.7 1.5 1 2.5-.3 1.2-1.6-.7-.7-1.3-.7-1.7-.1zM326 156.6c0 .9.7 1.4 1.7 1.2 2.5-.5 2.8-2.8.4-2.8-1.2 0-2.1.6-2.1 1.6zM332.2 156.9c.2.7.7 1.2 1.1 1.2 1.2-.1.9-1.5-.3-2-.7-.2-1.1.2-.8.8zM315.2 161.7c.2 1 1 1.8 1.8 1.8 2.2 0 1.8-2.9-.3-3.3-1.4-.3-1.8.1-1.5 1.5zM322 161.6c-1.1 1.2-1 1.8.3 3.2 1.6 1.5 1.8 1.5 3.4 0 1.3-1.4 1.4-2 .3-3.2-.7-.9-1.6-1.6-2-1.6-.4 0-1.3.7-2 1.6zM330.7 160.7c-.4.3-.7 1.2-.7 2 0 1.5 2.6 1.8 3.4.4.7-1.1-1.8-3.3-2.7-2.4zM308 162.4c0 .8.4 1.7.9 2 1.1.7 3.3-1.8 2.4-2.7-1.2-1.2-3.3-.7-3.3.7zM335 164c0 .5.7 1 1.5 1s1.5-.5 1.5-1c0-.6-.7-1-1.5-1s-1.5.4-1.5 1zM310.6 168.7c-.4.9 0 2.3.9 3.2 1.3 1.4 1.7 1.4 3.2-.1 1.3-1.4 1.4-2 .3-3.2-1.6-2.1-3.6-2-4.4.1zM318.7 167.7c-1.3 1.2-.7 3.3.8 3.3.8 0 1.5-.9 1.5-2 0-2-1.1-2.6-2.3-1.3zM324.7 167.6c-.8.8.1 2.4 1.4 2.4.5 0 .9-.7.9-1.5 0-1.5-1.2-2-2.3-.9zM331.2 169.2c.2 1.5 1 2.3 2.3 2.3 3 0 2.7-3.9-.3-4.3-2-.3-2.3 0-2 2zM323.2 172.9c-1.9 1.1-1.1 4.5 1.1 4.9.9.2 2-.4 2.3-1.3.9-2.1-1.6-4.7-3.4-3.6zM315.5 174.9c-.8 1.5.3 3.1 2.1 3.1.9 0 1.4-.7 1.2-1.7-.4-2-2.4-2.8-3.3-1.4zM308.5 175.9c-.6 1.1.9 2.3 1.9 1.4.9-.9.7-2.3-.3-2.3-.6 0-1.2.4-1.6.9zM330 176.4c0 .8.4 1.7.8 2 1.3.8 3.5-1.1 2.8-2.3-1-1.6-3.6-1.4-3.6.3zM320 181.5c0 .8.7 1.5 1.5 1.5s1.5-.7 1.5-1.5-.7-1.5-1.5-1.5-1.5.7-1.5 1.5zM361.4 151.1c-.7 1.2 1.2 2.9 3.3 2.9 1.9 0 2.7-2.1 1.2-3.1-1.9-1.2-3.6-1.1-4.5.2zM368 151.4c0 .2.7.6 1.5 1 .8.3 1.5.1 1.5-.4 0-.6-.7-1-1.5-1s-1.5.2-1.5.4zM356 153c0 .5.7 1 1.5 1s1.5-.5 1.5-1c0-.6-.7-1-1.5-1s-1.5.4-1.5 1zM359.5 155c-.3.5.1 1 .9 1 .9 0 1.6-.5 1.6-1 0-.6-.4-1-.9-1-.6 0-1.3.4-1.6 1zM278.4 154.5c-.8 2.1.2 4.5 1.9 4.5.8 0 2-.7 2.7-1.5 1-1.2 1-1.8 0-3-.7-.8-1.9-1.5-2.7-1.5-.7 0-1.6.7-1.9 1.5zM130 256.9V284h7v-21h10.3c8.7 0 11-.4 14.7-2.3 11.8-5.9 12.3-21.5 1-28.1-3-1.8-5.6-2.1-18.2-2.4l-14.8-.4v27.1zm27.9-19.8c7.6 2.7 8.1 15.3.6 18.7-1.4.7-6.8 1.2-12 1.2H137v-21h8.9c4.8 0 10.2.5 12 1.1zM193 257v27h7v-54h-7v27zM222.7 230.7c-.4.3-.7 1.7-.7 2.9 0 2.3.1 2.3 15.1 2.6l15 .3-16 20.7C223.4 273.6 220 278.6 220 281v3h42v-6l-16.9-.2-16.9-.3 15.5-20c16.5-21.3 17.9-23.5 17-25.9-.6-1.4-3.3-1.6-19-1.6-10.1 0-18.7.3-19 .7zM280 233v2.9l14.9.3 15 .3-15.6 20c-16.4 21.2-17.9 23.5-17 25.9.6 1.4 3.5 1.6 21.7 1.6h21v-6l-17-.2-17-.3 16-20.8c12.4-16.1 16-21.5 16-23.7v-3h-38v3zM354.7 230.7c-.4.6-19 45.8-21.4 52.1-.4 1 .4 1.3 3.3 1 3.8-.3 3.9-.4 6.9-8.1l3-7.7 12.3.2 12.4.3 3 7.7c2.9 7.6 3 7.8 6.4 7.8 1.9 0 3.4-.4 3.4-.8 0-.6-14.6-37.2-20.7-52-.5-1.3-7.9-1.7-8.6-.5zm9.2 19c2.4 6.2 4.1 11.6 3.9 12-.1.5-4.4.6-9.4.3l-9.2-.5 4.6-12.2c2.6-6.7 4.9-11.9 5.3-11.5.3.4 2.5 5.8 4.8 11.9zM83.7 248.6c-1.8 3.4-3.4 4.4-7.5 4.4h-2.6l2.9 3c2.3 2.4 2.9 3.8 2.6 6.5-.3 3.8.2 4.1 3.9 2.1 2.1-1.2 2.9-1.2 5.2 0 3.8 2 4 1.8 3.7-2.1-.3-2.4.3-4.1 1.9-5.8 2.8-3 2.8-3.7-.3-3.7-2.5 0-5-2-7.1-5.6-1-1.7-1.2-1.7-2.7 1.2zM424.7 248.6c-1.7 3.3-3.5 4.4-6.8 4.4-2.5 0-2.4.8.3 3.7 1.6 1.7 2.2 3.4 1.9 5.8-.3 3.8.2 4.1 3.9 2.1 2.1-1.2 2.9-1.2 5.2 0 3.8 2 4 1.8 3.7-2.1-.3-2.7.3-4.1 2.6-6.5l2.9-3h-3.2c-3.1 0-5.6-1.7-7.8-5.6-1-1.7-1.2-1.7-2.7 1.2zM217.5 311.1c-1 1.5.3 2.5 1.6 1.2.7-.7.7-1.3.1-1.7-.6-.3-1.4-.1-1.7.5zM302.7 315.7c-.3 1-.8 3.5-1.2 5.5-.3 2.1-.8 3.8-1 3.8-.3 0-1.9-.9-3.7-2-6.9-4.2-9.3-.9-3.7 5.4l3 3.5-3.8 1c-4.8 1.3-7.8 3.4-6.9 4.9.4.6 2.9 1.4 5.6 1.8 2.8.4 5 .8 5 1 0 .2-1 2.4-2.2 4.9-1.7 3.5-1.9 4.8-1 5.7.9.9 2.2.4 5.7-2.1 4.1-2.9 4.6-3.1 5.1-1.4 1.3 4.3 3.4 8.3 4.4 8.3 1.4 0 3-4.4 3-8.1 0-3.4 0-3.5 4.2-.9 3.8 2.3 7.8 2.6 7.8.7 0-.7-1.3-3.1-2.9-5.3l-3-4 5-1.8c6.7-2.3 6.4-4.7-.8-6.1l-5.1-1 1.8-3.5c3.9-7.2 2.1-9.3-4-4.9-2.3 1.7-4.3 2.9-4.4 2.7-.1-.2-1-2.4-2-5.1-1.8-4.8-4.1-6.1-4.9-3zm4.7 9l1.1 3.1 2.4-1.9c3.3-2.7 5.4-2.5 4.6.3-.4 1.3-1.1 2.7-1.6 3.2-1.6 1.7-1 2.5 2.3 2.8 4.2.4 4.7 2.6.9 3.9-3.5 1.2-3.8 2.1-1.6 3.9 1.4 1.2 2.1 5 1 5-.4 0-1.9-.7-3.5-1.5-2.5-1.3-2.9-1.3-3.4.1-.3.9-.6 2.4-.6 3.5 0 3-2.7 2.2-3.9-1.1-1.1-3.3-2.2-3.7-4.1-1.5-1.8 2.1-4.4 1.9-3.7-.3 2-6.3 2.1-6-1.4-6.4-4.5-.4-4.7-2.4-.4-3.8l3.5-1.2-2-2.5c-1.1-1.4-2-3-2-3.6 0-.9 3-.6 6.3.8 1.3.5 1.7.2 1.7-1.3 0-5.7 2.7-6.6 4.4-1.5zM394 316.5c-1.6 1.9-.6 4.5 1.9 4.5 2.3 0 3.5-2.8 2-4.6-1.5-1.8-2.4-1.8-3.9.1zM233.7 328.7c-1.3 1.2-.7 4.1 1 4.7.9.4 2.3 0 3.1-.8 1.3-1.2 1.3-1.8.2-3-1.3-1.7-3.2-2.1-4.3-.9zM163.9 330.1c-1.6 1.6-2 3-1.7 6 .2 2.1.1 3.9-.2 3.9-.3 0-2.5-.5-4.9-1.1-6.3-1.4-9.1.6-9.1 6.6 0 9.3 3.4 12.7 9.7 9.8 2.1-.9 4.1-1.9 4.5-2.1.3-.1.9 1 1.3 2.7.9 4.2 4.2 8.1 6.8 8.1 3.3 0 9.2-4.4 10.7-8 1.1-2.7 1-3.3-.6-5.1-1-1.2-3.2-2.8-4.8-3.6-2.8-1.5-2.8-1.5-.7-2.9 3.1-2.2 5.4-7.2 4.6-10.1-.4-1.6-2-3.1-4.8-4.3-5.4-2.5-8.2-2.5-10.8.1zM348.9 333.9c-7.3 2.3-9 6.4-4.9 12.1l2.1 2.9-4.3 1.9c-5.4 2.4-7.2 4.5-6.4 7.6.8 3.2 6.1 8.4 9.2 9.2 2.9.8 6.9-2.4 7.8-6.2l.6-2.4 4.2 3c2.2 1.7 5.1 3 6.4 3 3.1 0 6.2-4.2 7-9.7.6-4.1.4-4.9-1.7-6.6-1.8-1.4-3.4-1.8-6.5-1.4l-4.2.4 1-3.4c2.3-8.5-2-12.9-10.3-10.4zM217.6 350.2c-.3 1.3-.6 3.8-.6 5.5 0 1.8-.2 3.3-.5 3.3s-2.2-.9-4.2-2c-7.5-4-9.3-2-4.4 4.7l2.9 4-4.1 1.3c-8.3 2.4-8.2 5.5.2 6.6l4.7.6-2.5 5c-1.8 3.7-2.1 5.2-1.3 6 .9.9 2.3.4 5.7-2 2.5-1.8 4.7-3.2 4.9-3.2.2 0 .7 1.5 1 3.3.3 1.9 1.3 4.2 2.1 5.3 1.5 1.9 1.5 1.9 3 0 .8-1.1 1.5-3.7 1.5-5.8 0-2.1.2-3.8.5-3.8s2.3.9 4.5 2c7.5 3.8 9.4 1.3 4-5.2l-3.1-3.7 2.8-.7c3.8-.9 8.3-3.3 8.3-4.3 0-1.2-5.6-3.1-9.1-3.1h-2.8l2.6-5c2-3.9 2.3-5.4 1.5-6.2-.9-.9-2.3-.4-5.8 2.1-2.5 1.8-4.7 3.1-4.8 2.9-.1-.2-.8-2.3-1.6-4.8-1.7-5-4.4-6.4-5.4-2.8zm4.6 7.5c.7 1.6 1.3 3 1.5 3.2.1.2 1.4-.4 2.7-1.3 3.4-2.2 5-2.1 4.2.4-.3 1.1-.9 2.9-1.2 3.9-.5 1.6 0 2 2.8 2.3 4.1.4 4.1 1.8 0 3.8l-3.1 1.5 1.9 2.5c1.1 1.4 2 2.9 2 3.4 0 .8-3.1.4-6.1-.8-1.3-.6-1.8.1-2.3 2.9-.8 4.3-2.7 4.2-4.1-.2l-1.1-3.1-2.4 1.9c-4.7 3.5-6.2 2.2-3.5-3.1 1.5-2.9 1.5-3-.9-3-3 0-5.6-.9-5.6-2 0-.5 1.6-1.4 3.5-2l3.6-1.2-2.1-3.2c-2.4-4.1-1.7-4.9 2.5-3.2l3.3 1.4.7-3.4c.7-4.1 2.1-4.4 3.7-.7zM319.1 383c-.7.4-1.1 1.6-.9 2.6.4 2.2 3.7 3.1 4.8 1.3 1.6-2.5-1.4-5.5-3.9-3.9z"/></svg>